# xmcd CD database file
#
# Track frame offsets:
#	150
#	17450
#	35080
#	54630
#
# Disc length: 957 seconds
#
# Revision: 0
# Processed by: cddbd v1.5.1PL0 Copyright (c) Steve Scherf et al.
# Submitted via: CDex 1.51
#
DISCID=2b03bb04
DTITLE=Lead - 真夏のMagic
DYEAR=2002
DGENRE=JPop
TTITLE0=真夏のMagic
TTITLE1=No Doubt
TTITLE2=真夏のMagic Mach2 Brandnew Club Track
TTITLE3=真夏のMagic-Instrumental-
EXTD=YEAR: 2002
EXTT0=
EXTT1=
EXTT2=
EXTT3=
PLAYORDER=
